Coordinates
version=1
nRows=5
nColumns=63
inDegrees=yes

Units are S.I. units (second, meters, Newtons, ...)
If the header above contains a line with 'inDegrees', this indicates whether rotational values are in degrees (yes) or radians (no).

endheader
time	pelvis_tilt	pelvis_list	pelvis_rotation	pelvis_tx	pelvis_ty	pelvis_tz	hip_flexion_r	hip_adduction_r	hip_rotation_r	knee_angle_r	knee_angle_r_beta	ankle_angle_r	subtalar_angle_r	mtp_angle_r	hip_flexion_l	hip_adduction_l	hip_rotation_l	knee_angle_l	knee_angle_l_beta	ankle_angle_l	subtalar_angle_l	mtp_angle_l	L5_S1_Flex_Ext	L5_S1_Lat_Bending	L5_S1_axial_rotation	L4_L5_Flex_Ext	L4_L5_Lat_Bending	L4_L5_axial_rotation	L3_L4_Flex_Ext	L3_L4_Lat_Bending	L3_L4_axial_rotation	L2_L3_Flex_Ext	L2_L3_Lat_Bending	L2_L3_axial_rotation	L1_L2_Flex_Ext	L1_L2_Lat_Bending	L1_L2_axial_rotation	L1_T12_Flex_Ext	L1_T12_Lat_Bending	L1_T12_axial_rotation	Abs_r3	Abs_r2	Abs_r1	Abs_t1	Abs_t2	neck_flexion	neck_bending	neck_rotation	arm_flex_r	arm_add_r	arm_rot_r	elbow_flex_r	pro_sup_r	wrist_flex_r	wrist_dev_r	arm_flex_l	arm_add_l	arm_rot_l	elbow_flex_l	pro_sup_l	wrist_flex_l	wrist_dev_l
      5.97959184	      0.23853214	     -1.87129802	    111.16712233	      0.20427945	      0.39466041	      0.60746437	    -12.72289782	      4.78806037	    -11.87308876	      1.09802769	      0.01916420	      8.93414304	    -17.54586342	      0.00000000	    -10.70293055	     -5.53075462	     -7.02034072	      2.85634845	      0.04985269	     24.50549731	     14.39553556	      0.00000000	     -0.13891020	      0.56283851	     -2.01591819	     -0.25797014	      0.74857522	     -2.14191308	     -0.22821557	      1.36848556	     -2.14191308	     -0.15876047	      1.36848556	     -1.76392842	     -0.12899201	      1.14774030	     -1.63793353	     -0.07937329	      0.87183686	     -1.51193864	     -0.99222169	      6.36694183	    -11.21193219	      0.00000000	      0.00000000	     14.11298483	     -5.26083052	     24.06931984	   -292.95418529	     -8.50327454	   -340.55872797	    112.79453935	     88.56385128	    -12.01990479	     21.14342645	     77.50102076	    -34.39341202	     -5.20347046	    129.65952203	     89.30434547	     -7.95292078	      9.69495452
      6.00000000	      0.66399514	     -2.06585122	    110.75504486	      0.20456583	      0.39457945	      0.60963532	    -12.30960642	      4.96970060	    -11.01445135	      0.90116859	      0.01572836	      8.88438882	    -17.57269979	      0.00000000	    -10.38245607	     -5.73011139	     -6.95276326	      2.62298991	      0.04577981	     24.51603090	     14.00369073	      0.00000000	     -0.09902534	      0.61830845	     -1.78461420	     -0.18389996	      0.82235024	     -1.89615259	     -0.16268873	      1.50335517	     -1.89615259	     -0.11317606	      1.50335517	     -1.56153743	     -0.09195493	      1.26085460	     -1.44999904	     -0.05658308	      0.95775979	     -1.33846065	     -0.70732811	      6.99442888	     -9.92548882	      0.00000000	      0.00000000	     12.80467755	     -5.44160247	     22.16969690	   -296.27970311	     -9.94899153	   -339.39874244	    114.08721021	     88.40687317	    -12.62325949	     21.11054836	     74.66993124	    -31.02215527	     -7.05020516	    131.90876497	     89.27506081	     -8.29750025	      4.85256187
      6.02040816	      0.80021985	     -2.44228415	    110.34088997	      0.20513295	      0.39376321	      0.61206655	    -11.78797099	      4.83013858	    -10.37370494	      0.75862323	      0.01324047	      9.20533657	    -17.58827764	      0.00000000	     -9.98418471	     -5.58116521	     -6.94312656	      2.39345307	      0.04177364	     24.60083892	     13.58567498	      0.00000000	     -0.06608385	      0.61302267	     -1.57109292	     -0.12272432	      0.81532016	     -1.66928622	     -0.10856916	      1.49050333	     -1.66928622	     -0.07552723	      1.49050333	     -1.37470630	     -0.06136546	      1.25007584	     -1.27651300	     -0.03776031	      0.94957212	     -1.17831969	     -0.47203034	      6.93463510	     -8.73794748	      0.00000000	      0.00000000	     11.79550667	     -5.15747341	     18.50220742	   -299.80183437	    -11.51072159	   -337.93828385	    115.19850225	     88.05203331	    -14.58719426	     20.72249187	     71.98258132	    -27.98300213	     -7.60553913	    134.35218592	     89.22224181	     -7.06036932	      4.02375394
      6.04081633	      0.98489792	     -2.91175312	    109.70690898	      0.20610600	      0.39248183	      0.61441694	    -11.12622376	      4.68863056	     -9.77880890	      0.66529686	      0.01161162	      9.69553079	    -17.51199524	      0.00000000	     -9.49454748	     -5.43465181	     -7.13027458	      2.22889869	      0.03890162	     24.76747806	     13.12521505	      0.00000000	     -0.04300609	      0.60157158	     -1.27144892	     -0.07986661	      0.80009020	     -1.35091447	     -0.07065471	      1.46266113	     -1.35091447	     -0.04915166	      1.46266113	     -1.11251780	     -0.03993546	      1.22672476	     -1.03305224	     -0.02457368	      0.93183437	     -0.95358669	     -0.30718821	      6.80509798	     -7.07141743	      0.00000000	      0.00000000	     11.52599027	     -5.31574744	     13.63713744	   -303.61428004	    -13.67117627	   -335.67437735	    115.87729151	     87.19194444	    -17.38621427	     20.26887363	     68.62670970	    -25.10878650	     -7.44755018	    137.28171301	     89.12567813	     -3.63156136	      7.34066227
      6.06122449	      1.14137661	     -3.50851457	    109.13692590	      0.20691366	      0.39090171	      0.61677479	    -10.33674395	      4.49155956	     -9.40895954	      0.59415552	      0.01036997	     10.36181385	    -17.43540709	      0.00000000	     -8.86460297	     -5.23553069	     -7.25766860	      2.09569971	      0.03657686	     24.90388656	     12.68289886	      0.00000000	     -0.02695722	      0.58351107	     -0.91436428	     -0.05006225	      0.77606972	     -0.97151205	     -0.04428801	      1.41874880	     -0.97151205	     -0.03080941	      1.41874880	     -0.80006875	     -0.02503247	      1.18989576	     -0.74292098	     -0.01540335	      0.90385864	     -0.68577321	     -0.19255272	      6.60079387	     -5.08541984	      0.00000000	      0.00000000	     11.78006235	     -5.75241926	      8.52008647	   -307.83693974	    -16.40637130	   -332.56465162	    115.85680224	     84.96290940	    -20.07738573	     19.32841727	     64.50119345	    -22.42171112	     -6.42431872	    140.51268927	     88.95097995	      1.15458811	     13.23988143
